<?xml version="1.0" encoding="UTF-8" standalone="no"?><!DOCTYPE svg PUBLIC "-//W3C//DTD SVG 1.1//EN" "http://www.w3.org/Graphics/SVG/1.1/DTD/svg11.dtd"><svg width="100%" height="100%" viewBox="0 0 64 64" version="1.1" xmlns="http://www.w3.org/2000/svg" xmlns:xlink="http://www.w3.org/1999/xlink" xml:space="preserve" xmlns:serif="http://www.serif.com/" style="fill-rule:evenodd;clip-rule:evenodd;stroke-linejoin:round;stroke-miterlimit:2;"><path d="M60.763,18.646l0,26.708l-1.065,1.065l-51.15,0l-1.065,-1.065l-0,-26.708l1.065,-1.065l51.15,0l1.065,1.065Zm-2.13,1.065l-49.02,-0l0,24.578l49.02,0l-0,-24.578Z" style="fill:#d83300;"/><path d="M9.629,28.817l0,6.367l-1.065,1.065l-4.263,0l-1.065,-1.065l0,-6.367l1.065,-1.065l4.263,0l1.065,1.065Zm-2.13,1.065c0,-0 -2.133,0 -2.133,0l-0,4.237c-0,0 2.133,0 2.133,-0l0,-4.237Z" style="fill:#d83300;"/><path d="M52.888,24.714l0,14.573l-1.065,1.065l-14.065,-0l-1.065,-1.065l0,-14.573l1.065,-1.065l14.065,-0l1.065,1.065Zm-2.13,1.065c0,0 -11.935,-0 -11.935,-0l-0,12.443c-0,-0 11.935,-0 11.935,0l0,-12.443Z" style="fill:#d83300;"/><g><path d="M21.301,25.631l0,3.37l-1.065,1.065l-7.181,0l-1.065,-1.065l0,-3.37l1.065,-1.065l7.181,0l1.065,1.065Zm-2.13,1.065l-5.051,0l-0,1.24l5.051,-0l-0,-1.24Z" style="fill:#d83300;"/><path d="M21.301,34.998l0,3.37l-1.065,1.065l-7.181,0l-1.065,-1.065l0,-3.37l1.065,-1.065l7.181,0l1.065,1.065Zm-2.13,1.065l-5.051,0l-0,1.24l5.051,-0l-0,-1.24Z" style="fill:#d83300;"/></g><path d="M13.292,20.821l0,1.067l-0.535,0.535l-1.067,0l-0.535,-0.535l0,-1.067l0.535,-0.535l1.067,0l0.535,0.535Z" style="fill:#d83300;"/><path d="M16.492,20.821l0,1.067l-0.535,0.535l-1.067,0l-0.535,-0.535l0,-1.067l0.535,-0.535l1.067,0l0.535,0.535Z" style="fill:#d83300;"/><path d="M19.692,20.821l0,1.067l-0.535,0.535l-1.067,0l-0.535,-0.535l0,-1.067l0.535,-0.535l1.067,0l0.535,0.535Z" style="fill:#d83300;"/><path d="M22.892,20.821l0,1.067l-0.535,0.535l-1.067,0l-0.535,-0.535l0,-1.067l0.535,-0.535l1.067,0l0.535,0.535Z" style="fill:#d83300;"/><path d="M26.092,20.821l-0,1.067l-0.535,0.535l-1.067,0l-0.535,-0.535l-0,-1.067l0.535,-0.535l1.067,0l0.535,0.535Z" style="fill:#d83300;"/><path d="M29.292,20.821l0,1.067l-0.535,0.535l-1.067,0l-0.535,-0.535l0,-1.067l0.535,-0.535l1.067,0l0.535,0.535Z" style="fill:#d83300;"/><path d="M32.492,20.821l0,1.067l-0.535,0.535l-1.067,0l-0.535,-0.535l0,-1.067l0.535,-0.535l1.067,0l0.535,0.535Z" style="fill:#d83300;"/><path d="M35.692,20.821l0,1.067l-0.535,0.535l-1.067,0l-0.535,-0.535l0,-1.067l0.535,-0.535l1.067,0l0.535,0.535Z" style="fill:#d83300;"/><path d="M38.892,20.821l-0,1.067l-0.535,0.535l-1.067,0l-0.535,-0.535l-0,-1.067l0.535,-0.535l1.067,0l0.535,0.535Z" style="fill:#d83300;"/><path d="M42.092,20.821l0,1.067l-0.535,0.535l-1.067,0l-0.535,-0.535l0,-1.067l0.535,-0.535l1.067,0l0.535,0.535Z" style="fill:#d83300;"/><path d="M45.292,20.821l-0,1.067l-0.535,0.535l-1.067,0l-0.535,-0.535l-0,-1.067l0.535,-0.535l1.067,0l0.535,0.535Z" style="fill:#d83300;"/><path d="M48.492,20.821l-0,1.067l-0.535,0.535l-1.067,0l-0.535,-0.535l-0,-1.067l0.535,-0.535l1.067,0l0.535,0.535Z" style="fill:#d83300;"/><path d="M51.692,20.821l0,1.067l-0.535,0.535l-1.067,0l-0.535,-0.535l0,-1.067l0.535,-0.535l1.067,0l0.535,0.535Z" style="fill:#d83300;"/><path d="M54.892,20.821l-0,1.067l-0.535,0.535l-1.067,0l-0.535,-0.535l-0,-1.067l0.535,-0.535l1.067,0l0.535,0.535Z" style="fill:#d83300;"/><path d="M13.292,42.154l0,1.067l-0.535,0.535l-1.067,0l-0.535,-0.535l0,-1.067l0.535,-0.535l1.067,0l0.535,0.535Z" style="fill:#d83300;"/><path d="M16.492,42.154l0,1.067l-0.535,0.535l-1.067,0l-0.535,-0.535l0,-1.067l0.535,-0.535l1.067,0l0.535,0.535Z" style="fill:#d83300;"/><path d="M19.692,42.154l0,1.067l-0.535,0.535l-1.067,0l-0.535,-0.535l0,-1.067l0.535,-0.535l1.067,0l0.535,0.535Z" style="fill:#d83300;"/><path d="M22.892,42.154l0,1.067l-0.535,0.535l-1.067,0l-0.535,-0.535l0,-1.067l0.535,-0.535l1.067,0l0.535,0.535Z" style="fill:#d83300;"/><path d="M26.092,42.154l-0,1.067l-0.535,0.535l-1.067,0l-0.535,-0.535l-0,-1.067l0.535,-0.535l1.067,0l0.535,0.535Z" style="fill:#d83300;"/><path d="M29.292,42.154l0,1.067l-0.535,0.535l-1.067,0l-0.535,-0.535l0,-1.067l0.535,-0.535l1.067,0l0.535,0.535Z" style="fill:#d83300;"/><path d="M32.492,42.154l0,1.067l-0.535,0.535l-1.067,0l-0.535,-0.535l0,-1.067l0.535,-0.535l1.067,0l0.535,0.535Z" style="fill:#d83300;"/><path d="M35.692,42.154l0,1.067l-0.535,0.535l-1.067,0l-0.535,-0.535l0,-1.067l0.535,-0.535l1.067,0l0.535,0.535Z" style="fill:#d83300;"/><path d="M38.892,42.154l-0,1.067l-0.535,0.535l-1.067,0l-0.535,-0.535l-0,-1.067l0.535,-0.535l1.067,0l0.535,0.535Z" style="fill:#d83300;"/><path d="M42.092,42.154l0,1.067l-0.535,0.535l-1.067,0l-0.535,-0.535l0,-1.067l0.535,-0.535l1.067,0l0.535,0.535Z" style="fill:#d83300;"/><path d="M45.292,42.154l-0,1.067l-0.535,0.535l-1.067,0l-0.535,-0.535l-0,-1.067l0.535,-0.535l1.067,0l0.535,0.535Z" style="fill:#d83300;"/><path d="M48.492,42.154l-0,1.067l-0.535,0.535l-1.067,0l-0.535,-0.535l-0,-1.067l0.535,-0.535l1.067,0l0.535,0.535Z" style="fill:#d83300;"/><path d="M51.692,42.154l0,1.067l-0.535,0.535l-1.067,0l-0.535,-0.535l0,-1.067l0.535,-0.535l1.067,0l0.535,0.535Z" style="fill:#d83300;"/><path d="M54.892,42.154l-0,1.067l-0.535,0.535l-1.067,0l-0.535,-0.535l-0,-1.067l0.535,-0.535l1.067,0l0.535,0.535Z" style="fill:#d83300;"/></svg>